<svg id="Layer_1" data-name="Layer 1" xmlns="http://www.w3.org/2000/svg" viewBox="0 0 81.84 125"><defs><style>.cls-1{fill:#fff;}</style></defs><title>ParadiseSiteLogo</title><path d="M83.48,66.25l.38.17c-1.07,3.25-2.08,6.53-3,9.76-7.89,27.39-8.44,39.07-8,46.18,0,.55.06,1.1.1,1.64H70.13c.06-.46.13-1,.2-1.62C72.65,103.89,74,97.09,75,92.88c.44-1.85.89-3.6,1.37-5.36l0-.14c1.94-7,3.55-11.66,4.56-14.29l.07-.18c.25-.66.85-2.22,1.6-4.29.33-.9.62-1.71.85-2.37m-.59-1.37c-.26.77-.67,2-1.2,3.4-.82,2.27-1.45,3.9-1.66,4.46-2.3,6-4.21,13-4.63,14.52-.47,1.69-.92,3.47-1.38,5.39-.79,3.33-2.17,9.59-4.68,29.61-.16,1.24-.28,2.23-.34,2.74h5c0-.5-.13-1.47-.19-2.69-.36-6.45-.06-17.84,8-45.85.72-2.5,1.81-6.16,3.28-10.58l-2.2-1Z" transform="translate(-21.31 0)"/><path d="M53.61,20.14c2.45,9.63,4.6,19.39,6.41,29a415.23,415.23,0,0,1,7.29,73.23V124h-5q.21-.78.39-1.56c2.86-11.84,2.73-23-.58-49.69-2.06-16.63-7.43-43.55-9.19-52.4V20.3l.7-.16M54.33,19l-2.59.6c.06.3.13.68.19,1,1.75,8.75,7.13,35.73,9.19,52.32,3.32,26.8,3.4,37.75.6,49.33-.28,1.19-.54,2.16-.72,2.8h7.31c0-.57,0-1.48,0-2.6A409.69,409.69,0,0,0,61,49c-1.42-7.59-3.54-17.89-6.67-30Z" transform="translate(-21.31 0)"/><path class="cls-1" d="M89.48,83.6c1.29-4,.09-7.92-.32-9.26l0-.1a18,18,0,0,0-3.77-6.73l0-.05,0,0a9.44,9.44,0,0,0-5.2-1.54A10.84,10.84,0,0,0,69.22,76.26c-.08-.27-.14-.55-.2-.82a12,12,0,0,1,4.91-11.61,11,11,0,0,1,2.45-1.29l1.19-.44-1.17-.49a10.82,10.82,0,0,0-1.58-.52,10.29,10.29,0,0,0-2.36-.27,15.24,15.24,0,0,0-8.09,2.75,13.19,13.19,0,0,1,7.44-5,13.92,13.92,0,0,1,3.7-.49,14.89,14.89,0,0,1,4.43.68L81,59.1l-.47-1a17.91,17.91,0,0,0-.87-1.62,16.24,16.24,0,0,0-6.93-6.09,16.6,16.6,0,0,0-2.63-1c.28,0,.57,0,.86,0a14.68,14.68,0,0,1,8.41,2.88,16.31,16.31,0,0,1,5.94,7.9l.21.59.53-.33a12,12,0,0,1,1.5-.8,12.23,12.23,0,0,1,5-1.14,11.91,11.91,0,0,1,1.69.13,12.23,12.23,0,0,1,6.44,3.27c.32.3.64.62.93.94-1-.38-1.72-.69-2.31-.94s-.83-.36-1.18-.49a11.15,11.15,0,0,0-3.79-.66c-.29,0-.58,0-.89,0a10.71,10.71,0,0,0-2.89.65l-1.23.46,1.23.47c.43.17,1.06.42,1.78.76a29.39,29.39,0,0,1,4.2,2.33,13.78,13.78,0,0,1,5.5,10.36,17.44,17.44,0,0,0-8.19-8.22,16.61,16.61,0,0,0-3.58-1.14l-1.14-.22.63,1c.16.25.39.63.64,1.1A13.29,13.29,0,0,1,90,82.85C89.8,83.11,89.64,83.37,89.48,83.6Z" transform="translate(-21.31 0)"/><path d="M73.36,50.1a15.25,15.25,0,0,1,5.74,2.55,15.88,15.88,0,0,1,5.76,7.66l.41,1.18,1.06-.67a11.16,11.16,0,0,1,1.45-.77A11.71,11.71,0,0,1,92.61,59a10.81,10.81,0,0,1,1.61.13,11,11,0,0,1,5,2.19c-.33-.15-.63-.27-.92-.38a11.72,11.72,0,0,0-4-.69c-.31,0-.62,0-.93,0a11,11,0,0,0-3,.68L88,61.85l2.45.95c.59.23,1.18.48,1.76.74a30.15,30.15,0,0,1,4.11,2.28,13.06,13.06,0,0,1,4.32,5.6,13.2,13.2,0,0,1,.59,1.78,18.24,18.24,0,0,0-7.11-6.1,17,17,0,0,0-3.68-1.17l-2.29-.45,1.26,2c.22.35.42.7.62,1.07a13.88,13.88,0,0,1,1.79,8.27,12.46,12.46,0,0,1-1.28,4.1,18.07,18.07,0,0,0-.88-6.69l0-.11a18.35,18.35,0,0,0-3.87-6.91l-.09-.1L85.53,67a10,10,0,0,0-5.47-1.62,11.59,11.59,0,0,0-7.6,2.92A10.88,10.88,0,0,0,69.37,73a11.82,11.82,0,0,1,4.85-8.79A10.41,10.41,0,0,1,76.56,63l2.37-.88-2.33-1a10,10,0,0,0-1.66-.54,10.85,10.85,0,0,0-2.48-.29,13.74,13.74,0,0,0-5.63,1.32,14.15,14.15,0,0,1,5.11-2.59,13.83,13.83,0,0,1,3.57-.47,14.26,14.26,0,0,1,4.28.66l2.15.67-.94-2a13.56,13.56,0,0,0-.9-1.68,16.66,16.66,0,0,0-6.74-6.09M71,48.86a13,13,0,0,0-1.51.09,11.61,11.61,0,0,0-2,.43,16.15,16.15,0,0,1,5.11,1.43,15.86,15.86,0,0,1,6.71,5.91,14.47,14.47,0,0,1,.84,1.56,15.59,15.59,0,0,0-4.58-.7,14.29,14.29,0,0,0-3.83.51,13.76,13.76,0,0,0-8,5.68,10.28,10.28,0,0,0-.79,1.52c1.45-1.17,5.24-4,9.6-4a9.64,9.64,0,0,1,2.24.26,8.82,8.82,0,0,1,1.51.49,11.54,11.54,0,0,0-2.57,1.35,12.52,12.52,0,0,0-5.11,12.12,10.57,10.57,0,0,0,1.25,3.3c-.06-.37-.89-6,3.34-9.79a10.65,10.65,0,0,1,6.94-2.67,9.21,9.21,0,0,1,2.34.3A9,9,0,0,1,85,67.84a17.67,17.67,0,0,1,3.67,6.54c.39,1.31,1.74,5.5.17,9.57-.23.6-.78,1.85-.61,2h0c.27,0,1.37-1.55,2.15-2.8a13.74,13.74,0,0,0,.5-15.06c-.26-.49-.5-.88-.66-1.14A15.88,15.88,0,0,1,93.69,68a17.05,17.05,0,0,1,8.22,8.61,15.79,15.79,0,0,1,.54,1.59,13.19,13.19,0,0,0,.14-2.37,13.71,13.71,0,0,0-1-4.8,14.1,14.1,0,0,0-4.67-6,31.09,31.09,0,0,0-4.28-2.38c-.74-.34-1.37-.59-1.81-.76a9.7,9.7,0,0,1,2.76-.62,8.13,8.13,0,0,1,.84,0,10.57,10.57,0,0,1,3.61.63c.91.33,1.9.85,4.09,1.65l1.06.38a14.48,14.48,0,0,0-2.07-2.37,12.53,12.53,0,0,0-6.71-3.4A10.87,10.87,0,0,0,92.61,58a12.69,12.69,0,0,0-5.24,1.18A11.76,11.76,0,0,0,85.8,60a16.72,16.72,0,0,0-6.13-8.15,15.47,15.47,0,0,0-8.69-3Z" transform="translate(-21.31 0)"/><path class="cls-1" d="M47.31,45a13.83,13.83,0,0,1-1.88-1.42A17.12,17.12,0,0,1,40.9,26.07a15.24,15.24,0,0,1,1.68-3.62l.67-1.06L42,21.7a14.67,14.67,0,0,0-2.2.77C34.13,25,31.31,30.83,30,35.11a2,2,0,0,1,0-.23A18.59,18.59,0,0,1,34,21.9,20.67,20.67,0,0,1,43.44,15l1.06-.39-1-.52a19.07,19.07,0,0,0-2.35-1.07,21.79,21.79,0,0,0-7.9-1.44,23.9,23.9,0,0,0-5.06.54,23.43,23.43,0,0,0-4.85,1.62l.24-.24c2.35-2.29,6.63-5.1,13.67-5.4l1,0A23.51,23.51,0,0,1,50.9,12l.53.34.21-.58a18.09,18.09,0,0,1,1-2.24,17.12,17.12,0,0,1,6.81-7,16.58,16.58,0,0,1,8-2c.95,0,1.74.07,2.17.11A18.7,18.7,0,0,1,72.36,1c-1.88.58-3.17.91-4.21,1.17-.68.16-1.23.3-1.74.46A15.74,15.74,0,0,0,60.68,6,14.6,14.6,0,0,0,58,9.13l-.7,1.11,1.26-.36c.88-.26,1.78-.49,2.68-.7a44,44,0,0,1,6.78-1h.51a19.8,19.8,0,0,1,14.87,7.13q.3.36.57.75l0,0a24,24,0,0,0-12.11-3.18,21.2,21.2,0,0,0-9.91,2.27l-1,.52L62,16c.57.21,1.14.44,1.69.7a20.5,20.5,0,0,1,9.56,8.17,20.43,20.43,0,0,1,2.56,8.85c.11,1.13.16,2.16.17,3,0-.1-.24-.86-.24-.86-1.74-6-6.82-9.61-8.49-10.81l-.14-.1a25.19,25.19,0,0,0-10-4.31H57a13.52,13.52,0,0,0-4.06.95,15.19,15.19,0,0,0-8.73,11A15.85,15.85,0,0,0,47.31,45Z" transform="translate(-21.31 0)"/><path d="M67.51,1c.92,0,1.71.07,2.13.11l.53,0c-.84.24-1.54.41-2.14.56s-1.24.31-1.77.47a16.24,16.24,0,0,0-5.92,3.38,15.67,15.67,0,0,0-2.76,3.3l-1.39,2.22,2.52-.73c.87-.26,1.76-.49,2.65-.69a43.51,43.51,0,0,1,6.69-1h.49A18.74,18.74,0,0,1,78,11.35a19.22,19.22,0,0,1,4,3.1,25,25,0,0,0-10.13-2.1,23.65,23.65,0,0,0-5.06.51,23.13,23.13,0,0,0-5.07,1.82l-2.1,1,2.2.8c.55.2,1.11.43,1.65.68a20.06,20.06,0,0,1,9.33,8,19.41,19.41,0,0,1,2.45,8.08,23.76,23.76,0,0,0-7.72-8.59l-.13-.1a26,26,0,0,0-10.17-4.39l-.13,0H57a13.56,13.56,0,0,0-4.21,1A15.56,15.56,0,0,0,45.38,42.9a16.72,16.72,0,0,1-4-16.68A15.46,15.46,0,0,1,43,22.72l1.35-2.14-2.45.64a13.9,13.9,0,0,0-2.27.8c-4.82,2.14-7.63,6.53-9.24,10.45a18.86,18.86,0,0,1,4-10.27,20.15,20.15,0,0,1,9.2-6.69l2.12-.77-2-1.05a19.25,19.25,0,0,0-2.4-1.1,22.57,22.57,0,0,0-8.08-1.47,24.85,24.85,0,0,0-5.16.55,22.52,22.52,0,0,0-2.18.58A20.68,20.68,0,0,1,37.28,8.64l.93,0A23,23,0,0,1,50.63,12.4l1,.68.44-1.17a17.65,17.65,0,0,1,1-2.17,16.52,16.52,0,0,1,6.61-6.81A16,16,0,0,1,67.51,1m0-1a17.1,17.1,0,0,0-8.28,2.05,18.34,18.34,0,0,0-8,9.51,24,24,0,0,0-13-3.94l-1,0c-1.66.07-8.71.37-14,5.55a16.93,16.93,0,0,0-1.93,2.23,23.23,23.23,0,0,1,12-3.3A21.5,21.5,0,0,1,41,13.52a20.49,20.49,0,0,1,2.29,1.05,21.27,21.27,0,0,0-9.66,7c-.8,1-4.87,6.4-4.17,13.33a15.22,15.22,0,0,0,.43,2.39c.72-3,3.15-11.27,10.16-14.39a13.64,13.64,0,0,1,2.13-.74,15.66,15.66,0,0,0-1.74,3.73c-1.9,6-.34,13.61,4.67,18.08a15.42,15.42,0,0,0,4.26,2.66c-.4-.38-6.2-6-4.66-13.94a14.65,14.65,0,0,1,8.43-10.67A12.76,12.76,0,0,1,57,21.14a24.9,24.9,0,0,1,9.77,4.23c1.57,1.13,6.7,4.69,8.44,10.64.26.87.7,2.73,1,2.73h0c.34,0,.25-2.87.05-5a21,21,0,0,0-2.63-9.06,21.18,21.18,0,0,0-9.78-8.37c-.71-.32-1.32-.56-1.73-.71A21.9,21.9,0,0,1,67,13.84a22.37,22.37,0,0,1,4.84-.49,23.22,23.22,0,0,1,11.85,3.12,20.51,20.51,0,0,1,2,1.32A19.49,19.49,0,0,0,83.8,15,20.36,20.36,0,0,0,68.54,7.68H68a42.68,42.68,0,0,0-6.88,1c-1.13.25-2.06.51-2.71.7A14.07,14.07,0,0,1,61,6.32a15.1,15.1,0,0,1,5.55-3.17c1.3-.41,2.86-.67,6-1.66L74.1,1A19.61,19.61,0,0,0,69.73.11C69.18.06,68.42,0,67.51,0Z" transform="translate(-21.31 0)"/></svg>